<?xml version="1.0" encoding="utf-8"?>
<!-- Generator: Adobe Illustrator 22.1.0, SVG Export Plug-In . SVG Version: 6.00 Build 0)  -->
<svg version="1.1" id="Layer_1" xmlns="http://www.w3.org/2000/svg" xmlns:xlink="http://www.w3.org/1999/xlink" x="0px" y="0px"
	 viewBox="0 0 8251.2 1613.2" style="enable-background:new 0 0 8251.2 1613.2;" xml:space="preserve">
<style type="text/css">
	.st2{fill:#FFFFFF;}
</style>
<g>
	<polygon class="st2" points="645.6,1126.9 367.6,1126.9 290.2,1204.3 371.5,1400.6 567.8,1481.9 645.6,1404.1 	"/>
	<polygon class="st2" points="1472.5,1126.9 1195.3,1126.9 1195.3,1404.9 1273.4,1483 1472.5,1400.6 1552.6,1207.1 	"/>
	<rect x="724.1" y="1246.6" class="st2" width="392.6" height="235.6"/>
	<polygon class="st2" points="1116.3,577.2 1116.3,152.1 922,71.6 723.7,153.7 723.7,577.2 	"/>
	<polygon class="st2" points="645.2,577.2 645.2,299.6 565,219.4 371.5,299.6 289.1,498.7 367.6,577.2 	"/>
	<polygon class="st2" points="1472.5,577.2 1553.8,495.9 1472.5,299.6 1276.2,218.3 1194.9,299.6 1194.9,577.2 	"/>
	<g>
		<polygon class="st2" points="207.7,695 1636.3,695 1620,655.8 224,655.8 		"/>
		<polygon class="st2" points="1634.6,1009.1 209.4,1009.1 225.6,1048.4 1618.4,1048.4 		"/>
	</g>
	<g>
		<path class="st2" d="M210.5,738.7v90.5l78.3-90.5h67.6L267,842.2l89.3,123.2h-64.2l-59.9-82.8l-21.8,25.2v57.7H152V738.7H210.5z"
			/>
		<path class="st2" d="M414.9,965.4l-36.7-226.7h55.7l21.8,133.4l27.7-133.4h43.5l27.7,133.4l21.8-133.4H632l-36.7,226.7h-63.9
			l-26.3-108.3l-26.3,108.3H414.9z"/>
		<path class="st2" d="M785.5,738.7l58.2,226.7H786l-9.6-39.6h-68.7l-9.6,39.6h-57.7l58.2-226.7H785.5z M742.2,785.6l-22.3,90.7
			h44.4L742.2,785.6z"/>
		<path class="st2" d="M940.4,738.7l67.3,139.6V738.7h57.1v226.7h-63.9l-66.7-138.5v138.5h-57.1V738.7H940.4z"/>
		<path class="st2" d="M1291.5,966.8h-55.7v-7.6c-7.9,4.9-17.9,7.4-30,7.6h-46.1c-37.3,0-56-16.8-56-50.3V787.6
			c0-33.5,18.7-50.3,56-50.3h75.8c37.3,0,56,16.8,56,50.3v22.9h-57.1v-16.7c0-7.5-3.8-11.3-11.3-11.3h-50.9
			c-7.5,0-11.3,3.8-11.3,11.3v116.5c0,7.5,3.8,11.3,11.3,11.3h52.3c6.2,0,10-1.7,11.3-5.1v-35.1h-37v-45.2h92.7V966.8z"/>
		<path class="st2" d="M1487.9,738.7v226.7h-58.5V738.7H1487.9z"/>
		<path class="st2" d="M1585.4,917.4H1692v48.1h-165.1V738.7h58.5V917.4z"/>
	</g>
</g>
<g>
	<path class="st2" d="M2550,804v154h-613V804h125V681h187v123H2550z M2514,457v98c0,22-1,40.3-3,55l-22,167h-191l21-169
		c0-2,0.3-4,1-6h-358V457H2514z M2807,1115v94c0,35.3-11.2,64.2-33.5,86.5c-22.3,22.3-51.2,33.5-86.5,33.5h-594
		c-35.3,0-64.2-11.2-86.5-33.5c-22.3-22.3-33.5-51.2-33.5-86.5v-94c0-35.3,11.2-64.2,33.5-86.5c22.3-22.3,51.2-33.5,86.5-33.5h594
		c35.3,0,64.2,11.2,86.5,33.5C2795.8,1050.8,2807,1079.7,2807,1115z M2600,1173v-32c0-6-1.7-10.7-5-14c-3.3-3.3-8-5-14-5h-382
		c-6,0-10.7,1.7-14,5c-3.3,3.3-5,8-5,14v32c0,6,1.7,10.7,5,14c3.3,3.3,8,5,14,5h382c6,0,10.7-1.7,14-5
		C2598.3,1183.7,2600,1179,2600,1173z M2797,447v178h84v148h-84v185h-207V447H2797z"/>
	<path class="st2" d="M2993,693v-72c-0.7-50,14.5-90.5,45.5-121.5s72.2-46.8,123.5-47.5h210c49.3,0,89.5,16,120.5,48
		s46.8,72.3,47.5,121v72c-0.7,48.7-16.5,89-47.5,121s-71.2,48-120.5,48h-210c-50.7,0-91.7-15.7-123-47
		C3007.7,783.7,2992.3,743,2993,693z M3867,1171h-597v31h607v127h-834v-273h597v-29h-597V902h824V1171z M3190,692
		c0,13.3,3.3,23.3,10,30c6.7,6.7,16.7,10,30,10h78c13.3,0,23.3-3.3,30-10c6.7-6.7,10-16.7,10-30v-68c0-13.3-3.3-23.3-10-30
		c-6.7-6.7-16.7-10-30-10h-78c-13.3,0-23.3,3.3-30,10c-6.7,6.7-10,16.7-10,30V692z M3867,447v422h-222V447H3867z"/>
	<path class="st2" d="M4921,1140v169h-864v-169H4921z M4907,467v156h-110v230h110v156h-837V853h110V623h-110V467H4907z M4585,623
		h-193v230h193V623z"/>
	<path class="st2" d="M5609,960h-305v185l315-25v158l-522,41V802h313V625h-313V467h512V960z M5947,777h84v174h-84v378h-222V447h222
		V777z"/>
	<path class="st2" d="M7021,1140v169h-864v-169H7021z M6799,467l207,522h-227l-142-358h-97l-142,358h-227l207-522H6799z"/>
	<path class="st2" d="M7735,457v137h-532V457H7735z M7203,654h512v127h-305v81l345-14v135l-552,22V654z M8067,1053v117
		c0,11.3-1.7,29.3-5,54l-14,105h-222l14-105c1.3-10,2.3-18.7,3-26h-610v-145H8067z M8067,447v573h-222V447H8067z"/>
</g>
</svg>
