<?xml version="1.0" encoding="utf-8"?>
<!-- Generator: Adobe Illustrator 22.1.0, SVG Export Plug-In . SVG Version: 6.00 Build 0)  -->
<svg version="1.1" id="Layer_1" xmlns="http://www.w3.org/2000/svg" xmlns:xlink="http://www.w3.org/1999/xlink" x="0px" y="0px"
	 viewBox="0 0 2053.2 2053.2" style="enable-background:new 0 0 2053.2 2053.2;" xml:space="preserve">
<style type="text/css">
	.st2{fill:#FFFFFF;}
</style>
<polygon class="st2" points="675,1442.5 320.9,1442.5 222.4,1541.1 325.9,1791.1 575.9,1894.6 675,1795.6 "/>
<polygon class="st2" points="1728.1,1442.5 1375,1442.5 1375,1796.6 1474.5,1896.1 1728.1,1791.1 1830.2,1544.6 "/>
<rect x="775" y="1595" class="st2" width="500" height="300"/>
<polygon class="st2" points="1274.5,742.5 1274.5,201 1027,98.5 774.5,203.1 774.5,742.5 "/>
<polygon class="st2" points="674.5,742.5 674.5,388.9 572.4,286.8 325.9,388.9 220.9,642.5 320.9,742.5 "/>
<polygon class="st2" points="1728.1,742.5 1831.6,638.9 1728.1,388.9 1478.1,285.4 1374.5,388.9 1374.5,742.5 "/>
<g>
	<polygon class="st2" points="117.3,892.5 1936.7,892.5 1916,842.5 138,842.5 	"/>
	<polygon class="st2" points="1934.6,1292.5 119.4,1292.5 140.1,1342.5 1913.9,1342.5 	"/>
</g>
<g>
	<path class="st2" d="M120.9,948.1v115.2l99.7-115.2h86l-113.8,131.8l113.8,157h-81.7l-76.3-105.5l-27.7,32v73.4H46.4V948.1H120.9z"
		/>
	<path class="st2" d="M381.2,1236.9l-46.8-288.7h70.9l27.7,169.9l35.3-169.9h55.4l35.3,169.9l27.7-169.9h70.9l-46.8,288.7h-81.4
		L496,1099l-33.5,137.9H381.2z"/>
	<path class="st2" d="M853.1,948.1l74.2,288.7h-73.4l-12.2-50.4h-87.5l-12.2,50.4h-73.4l74.2-288.7H853.1z M798,1007.9l-28.4,115.6
		h56.5L798,1007.9z"/>
	<path class="st2" d="M1050.4,948.1l85.7,177.8V948.1h72.7v288.7h-81.4l-85-176.4v176.4h-72.7V948.1H1050.4z"/>
	<path class="st2" d="M1497.5,1238.7h-70.9v-9.7c-10.1,6.2-22.8,9.5-38.2,9.7h-58.7c-47.5,0-71.3-21.4-71.3-64.1v-164.2
		c0-42.7,23.8-64.1,71.3-64.1h96.5c47.5,0,71.3,21.4,71.3,64.1v29.2h-72.7v-21.2c0-9.6-4.8-14.4-14.4-14.4h-64.8
		c-9.6,0-14.4,4.8-14.4,14.4v148.3c0,9.6,4.8,14.4,14.4,14.4h66.6c7.9,0,12.7-2.2,14.4-6.5v-44.6h-47.2v-57.6h118.1V1238.7z"/>
	<path class="st2" d="M1747.7,948.1v288.7h-74.5V948.1H1747.7z"/>
	<path class="st2" d="M1871.9,1175.7h135.7v61.2h-210.2V948.1h74.5V1175.7z"/>
</g>
</svg>
